<svg xmlns="http://www.w3.org/2000/svg" width="140" height="40" fill="none"><rect width="139" height="39" x=".5" y=".5" stroke="#CCC" rx=".5"/><path fill="#fff" fill-rule="evenodd" d="M19.761 11.393c1.322.098 2.68-.672 3.527-1.68.813-1.024 1.37-2.416 1.215-3.83-1.177.054-2.647.82-3.495 1.821-.75.882-1.42 2.328-1.247 3.689m9.685 12.022c-.038-.014-3.15-1.21-3.181-4.827-.027-2.995 2.417-4.464 2.565-4.553l.003-.002c-1.405-2.062-3.583-2.345-4.35-2.367-1.119-.118-2.218.32-3.116.68-.57.227-1.058.423-1.42.423-.412 0-.914-.204-1.478-.432-.737-.298-1.577-.639-2.453-.62-1.991.031-3.854 1.191-4.875 2.992-2.107 3.674-.536 9.073 1.484 12.043 1.01 1.454 2.19 3.077 3.735 3.02.7-.028 1.198-.239 1.712-.457.594-.251 1.21-.512 2.188-.512.922 0 1.512.253 2.078.495.543.233 1.064.456 1.834.438 1.623-.026 2.645-1.46 3.619-2.929 1.168-1.666 1.635-3.308 1.655-3.392M74.268 28.71q.95-.863.949-2.234 0-1.115-.65-1.863-.649-.75-2.027-1.307-1.126-.45-1.553-.83a1.32 1.32 0 0 1-.49-1.053q0-.575.427-.974.507-.446 1.41-.447 1.141 0 2.044.495l.426-1.404q-.965-.51-2.423-.51-1.634 0-2.614.846-.983.846-.983 2.172 0 2.03 2.804 3.083 1.03.384 1.473.832t.443 1.102q0 .736-.537 1.174-.54.44-1.505.44a4.67 4.67 0 0 1-2.474-.687l-.396 1.436q1.044.67 2.767.67 1.865 0 2.909-.942m-26.65.781h-1.822l-1-3.157h-3.469l-.95 3.157h-1.775L42.04 18.74h2.123zm-3.121-4.483-.903-2.807q-.144-.43-.539-2.026h-.032a77 77 0 0 1-.507 2.026l-.887 2.807zm10.9 3.637q1.06-1.146 1.061-3.125 0-1.77-.912-2.856-.91-1.084-2.273-1.084-1.742 0-2.598 1.388h-.032l-.096-1.229h-1.504q.063 1.308.064 2.552v8.36h1.71v-4.085h.032q.666 1.1 2.187 1.1 1.41 0 2.36-1.02m-.681-3.062q0-1.133-.508-1.866-.555-.766-1.489-.767-.634.002-1.148.423a1.96 1.96 0 0 0-.674 1.11 2.3 2.3 0 0 0-.08.524V26.3q0 .846.516 1.428.515.584 1.339.582.965 0 1.503-.749.54-.75.54-1.979m9.536 3.063q1.063-1.147 1.062-3.126 0-1.77-.91-2.856-.912-1.084-2.274-1.084-1.743 0-2.598 1.388H59.5l-.096-1.229H57.9q.064 1.308.064 2.552v8.36h1.71v-4.085h.032q.665 1.1 2.186 1.1 1.41 0 2.36-1.02m-.68-3.064q0-1.132-.509-1.865-.553-.766-1.488-.767-.633.002-1.15.423a1.96 1.96 0 0 0-.672 1.11 2.3 2.3 0 0 0-.08.524V26.3q.001.846.515 1.428.515.582 1.34.582.966 0 1.504-.749.54-.75.54-1.979m17.3-2.55h-1.885v3.764q0 1.436.999 1.436.457-.001.76-.08l.047 1.307q-.506.19-1.331.19-1.013.001-1.584-.622-.571-.622-.572-2.09V23.03h-1.123v-1.294h1.123v-1.419l1.68-.51v1.93h1.886v1.2939999999999998m7.494 5.454q1.014-1.146 1.015-2.935 0-1.74-.984-2.838-1.03-1.133-2.725-1.133-1.759 0-2.795 1.15-1.039 1.146-1.038 2.95 0 1.722 1.006 2.855 1.005 1.131 2.7 1.131 1.758.001 2.821-1.18m-.76-2.88q.001-1.071-.46-1.838-.537-.929-1.535-.928-1.032 0-1.568.928-.461.767-.46 1.871-.001 1.073.46 1.84.552.927 1.553.927.98 0 1.535-.944c.316-.52.475-1.141.475-1.855m7.335-2.353a3 3 0 0 0-.539-.047q-.902 0-1.395.687-.427.605-.427 1.53v4.068h-1.71l.016-5.311q0-1.34-.064-2.441h1.49l.063 1.484h.047q.27-.766.855-1.228a2.06 2.06 0 0 1 1.237-.415q.237 0 .427.031zm7.652 1.995q0 .464-.063.782h-5.132q.03 1.148.744 1.755.65.542 1.678.542 1.142 0 2.078-.366l.268 1.195q-1.093.48-2.581.479-1.792 0-2.814-1.06-1.02-1.062-1.021-2.848 0-1.755.95-2.918.999-1.244 2.693-1.244 1.665 0 2.521 1.244.678.988.679 2.44m-1.964-1.77q.349.558.332 1.323h-3.563q.078-.781.506-1.34.523-.702 1.361-.702.92 0 1.364.719M42.142 14.815q-.559 0-1.03-.132a2.3 2.3 0 0 1-.817-.404 1.86 1.86 0 0 1-.536-.686q-.192-.413-.192-.985h.794q.01.422.161.716.154.296.403.475.248.181.58.26t.707.079q.323 0 .602-.093c.177-.056.342-.146.486-.264.283-.233.445-.584.44-.953q0-.342-.131-.557a.9.9 0 0 0-.344-.335 1.5 1.5 0 0 0-.499-.163 4 4 0 0 0-.598-.044 11 11 0 0 0-.558.018v-.686q.105.018.28.018h.278q.297 0 .547-.058.247-.056.426-.188a.9.9 0 0 0 .28-.348q.101-.215.1-.531a1 1 0 0 0-.108-.484.9.9 0 0 0-.297-.312 1.3 1.3 0 0 0-.428-.171 2.3 2.3 0 0 0-.502-.053q-.69 0-1.083.303-.393.304-.462.99h-.795q.017-.502.206-.876.188-.373.501-.615.315-.242.738-.365.425-.123.921-.123.445 0 .834.1.39.104.676.313.29.211.454.533.166.32.166.76 0 .255-.087.474a1.5 1.5 0 0 1-.23.396c-.187.228-.434.4-.713.492v.027c.191.036.375.105.541.206.3.179.523.462.63.796q.078.245.078.5c-.016.482-.215.938-.555 1.275-.216.213-.47.382-.75.497q-.46.198-1.114.198m4.813-.044a2.4 2.4 0 0 1-.576-.066 1.3 1.3 0 0 1-.476-.22 1.1 1.1 0 0 1-.324-.395 1.3 1.3 0 0 1-.117-.585q0-.387.13-.633.132-.246.345-.4a1.6 1.6 0 0 1 .49-.233q.275-.078.563-.132.306-.06.58-.092.276-.03.485-.088a.8.8 0 0 0 .332-.166q.122-.11.122-.321a.75.75 0 0 0-.092-.396.63.63 0 0 0-.235-.229 1 1 0 0 0-.324-.105 2.4 2.4 0 0 0-.353-.027q-.471 0-.786.18-.315.181-.34.682h-.742q.017-.422.174-.712t.42-.47q.26-.181.598-.26.334-.08.72-.079.304 0 .607.044.3.044.545.18.244.137.393.383.148.246.148.641v2.339q0 .264.031.386.03.124.205.124a.9.9 0 0 0 .227-.044v.58q-.192.114-.532.114a.64.64 0 0 1-.458-.163q-.172-.161-.171-.531a1.8 1.8 0 0 1-.712.531q-.405.164-.877.163m.794-.752a1.7 1.7 0 0 1-.628.101 1.5 1.5 0 0 1-.332-.035.8.8 0 0 1-.275-.114.6.6 0 0 1-.192-.206.6.6 0 0 1-.074-.313q0-.28.126-.444c.086-.11.2-.196.328-.25q.218-.093.454-.123l.502-.07q.248-.036.476-.08a.8.8 0 0 0 .366-.158v.765a.9.9 0 0 1-.078.338c-.058.127-.141.242-.245.335q-.165.152-.428.254m2.857-3.89h3.091v.66h-2.349v3.885h-.742zm4.647 0h-.742v6.277h.742v-2.338h.018a1.2 1.2 0 0 0 .3.339q.176.134.38.215c.248.096.512.147.778.15.31.006.62-.057.903-.186.25-.116.472-.29.646-.505.176-.222.307-.476.385-.748q.126-.425.126-.918 0-.483-.13-.914a2.3 2.3 0 0 0-.39-.76 1.8 1.8 0 0 0-.646-.523 2 2 0 0 0-.912-.194q-.471 0-.864.171a1.12 1.12 0 0 0-.576.55h-.018zm1.397 3.992q.375 0 .637-.15t.42-.395a1.7 1.7 0 0 0 .227-.563q.07-.322.07-.65 0-.316-.084-.62a1.7 1.7 0 0 0-.252-.54 1.24 1.24 0 0 0-1.062-.52q-.375 0-.637.15t-.428.39a1.6 1.6 0 0 0-.24.55c-.1.418-.1.854.005 1.27q.078.314.248.55t.441.382q.27.147.655.146m3.407 2.347q.131.017.262.017a1.3 1.3 0 0 0 .432-.066.95.95 0 0 0 .341-.211q.167-.165.279-.373.127-.229.258-.563l1.964-5.142h-.786l-1.266 3.718h-.017l-1.319-3.718h-.838l1.79 4.518-.305.765a.9.9 0 0 1-.245.307.6.6 0 0 1-.367.106.7.7 0 0 1-.223-.035l-.213-.07v.685q.123.045.253.062m6.017-1.697q-.899 0-1.405-.404-.507-.405-.55-1.152h.75q.036.502.367.721.332.22.83.22.532 0 .82-.229a.71.71 0 0 0 .289-.58q0-.343-.219-.536-.218-.194-.742-.194h-.602v-.606h.48q.393 0 .672-.162.28-.164.28-.568 0-.255-.241-.448-.24-.194-.711-.194-.2 0-.398.045-.195.044-.353.14a.8.8 0 0 0-.262.255.9.9 0 0 0-.13.387h-.752q.027-.421.201-.7.175-.276.437-.439.261-.162.593-.232.333-.07.673-.07.349 0 .654.07.306.068.537.224.231.154.368.382.135.228.135.545 0 .396-.224.642a.95.95 0 0 1-.501.307v.018q.158.027.314.106.16.08.28.214.122.138.2.334.08.2.079.462c.01.44-.208.854-.576 1.09a2 2 0 0 1-.598.264 2.7 2.7 0 0 1-.695.088m3.696-4.641h-.742v4.544h.951l2.13-3.71v3.71h.743V10.13H71.9l-2.13 3.71zm5.484.659H73.64v-.66h3.973v.66h-1.615v3.885h-.743zm4.119 3.806q.407.176.947.176.77 0 1.275-.382.507-.383.655-1.156h-.734q-.096.447-.397.668-.3.22-.772.22-.367 0-.638-.124a1.24 1.24 0 0 1-.698-.804 1.8 1.8 0 0 1-.07-.567h3.379a3.6 3.6 0 0 0-.074-.87 2.5 2.5 0 0 0-.333-.844 2 2 0 0 0-.637-.638q-.397-.25-1-.25a2 2 0 0 0-1.522.668q-.285.316-.442.752-.157.435-.157.945 0 .518.136.958c.082.277.22.535.405.756.185.214.417.383.677.492m2.16-2.628a1.5 1.5 0 0 0-.117-.501 1.266 1.266 0 0 0-1.183-.782q-.288 0-.519.101a1.2 1.2 0 0 0-.398.276q-.165.177-.262.409a1.6 1.6 0 0 0-.113.497zm6.457-1.837h-2.087v4.544h2.454a1.5 1.5 0 0 0 .55-.1 1.4 1.4 0 0 0 .436-.278c.123-.118.22-.262.283-.422q.102-.245.101-.536 0-.457-.23-.747a1.03 1.03 0 0 0-.625-.37v-.008q.314-.15.489-.378.174-.229.174-.598 0-.342-.13-.562a.9.9 0 0 0-.35-.338 1.5 1.5 0 0 0-.493-.163 3.6 3.6 0 0 0-.572-.044m.227 3.911q.366 0 .555-.215a.8.8 0 0 0 .187-.54.64.64 0 0 0-.2-.493q-.202-.185-.673-.185h-1.45v1.433zm.362-2.224q-.186.176-.668.176h-1.274v-1.23h1.274q.489 0 .673.153c.125.108.192.27.183.435a.6.6 0 0 1-.188.466" clip-rule="evenodd"/></svg>