<svg xmlns="http://www.w3.org/2000/svg" width="140" height="40" fill="none"><rect width="139" height="39" x=".5" y=".5" stroke="#CCC" rx=".5"/><path fill="#fff" fill-rule="evenodd" d="M44.437 23.109v1.648h3.977a3.45 3.45 0 0 1-.92 2.08 4.08 4.08 0 0 1-3.066 1.21c-2.415-.036-4.354-1.995-4.354-4.398s1.94-4.361 4.354-4.397a4.25 4.25 0 0 1 3.01 1.181l1.17-1.163a5.8 5.8 0 0 0-4.171-1.713 6.09 6.09 0 0 0-5.462 2.957 6.03 6.03 0 0 0 0 6.188 6.09 6.09 0 0 0 5.462 2.957 5.54 5.54 0 0 0 4.244-1.695 5.48 5.48 0 0 0 1.436-3.866 5.4 5.4 0 0 0-.092-1.035zm10.21-1.2c-2.16.005-3.907 1.75-3.903 3.9.003 2.148 1.756 3.888 3.915 3.886 2.16-.001 3.91-1.744 3.91-3.893a3.83 3.83 0 0 0-1.137-2.777 3.87 3.87 0 0 0-2.796-1.117zm4.676 3.905c-.007-2.148 1.735-3.896 3.894-3.906a3.87 3.87 0 0 1 2.795 1.117 3.83 3.83 0 0 1 1.136 2.777c0 2.148-1.748 3.89-3.907 3.893-2.158.004-3.911-1.733-3.918-3.88m1.585 1.013a2.38 2.38 0 0 0 2.309 1.34 2.27 2.27 0 0 0 1.606-.719 2.25 2.25 0 0 0 .603-1.646 2.36 2.36 0 0 0-1.509-2.194 2.38 2.38 0 0 0-2.605.591 2.355 2.355 0 0 0-.404 2.628m-8.576.007a2.38 2.38 0 0 0 2.314 1.332h-.01a2.27 2.27 0 0 0 1.607-.718c.417-.445.634-1.039.604-1.646a2.36 2.36 0 0 0-1.511-2.195 2.38 2.38 0 0 0-2.606.596 2.355 2.355 0 0 0-.398 2.63m30.466-4.925a3.68 3.68 0 0 1 3.35 2.482l.193.412-5.237 2.153A1.99 1.99 0 0 0 83 28.138a2.24 2.24 0 0 0 1.924-1.08l1.335.916A3.9 3.9 0 0 1 83 29.696a3.84 3.84 0 0 1-2.774-1.125 3.8 3.8 0 0 1-1.111-2.768 3.65 3.65 0 0 1 .994-2.74 3.7 3.7 0 0 1 2.689-1.154m-1.99 3.783a2.13 2.13 0 0 1 .543-1.564 2.15 2.15 0 0 1 1.501-.708 1.52 1.52 0 0 1 1.455.824l-3.498 1.448m-2.53 3.775h-1.722V18.015h1.722zm-4.539-6.688h-.064a2.77 2.77 0 0 0-2.062-.917 3.91 3.91 0 0 0-3.727 3.899 3.91 3.91 0 0 0 3.727 3.898 2.68 2.68 0 0 0 2.062-.917h.054v.56c0 1.493-.8 2.29-2.089 2.29a2.16 2.16 0 0 1-1.97-1.384l-1.5.623a3.73 3.73 0 0 0 3.47 2.3c2.016 0 3.682-1.181 3.682-4.059v-6.934h-1.583zm-1.973 5.387h.003-.01zm1.551-.735c-.395.445-.955.71-1.55.735a2.38 2.38 0 0 1-2.172-2.364c0-1.23.944-2.255 2.174-2.364.595.03 1.152.299 1.545.744.394.445.59 1.029.545 1.62a2.17 2.17 0 0 1-.542 1.629m20.895-9.416h-4.115v11.452h1.722v-4.343h2.403a3.59 3.59 0 0 0 3.31-1.701 3.55 3.55 0 0 0 0-3.707 3.59 3.59 0 0 0-3.31-1.701zM91.81 23.51h2.402l.037.029a1.97 1.97 0 0 0 1.975-1.966 1.97 1.97 0 0 0-1.975-1.965H91.81zm13.017-1.649a3.23 3.23 0 0 0-3.066 1.75l1.528.633a1.64 1.64 0 0 1 1.565-.844c.442-.051.886.076 1.232.354.347.277.566.682.61 1.122v.119a3.8 3.8 0 0 0-1.796-.44c-1.647 0-3.314.916-3.314 2.575.033.714.355 1.385.893 1.86a2.67 2.67 0 0 0 1.961.659 2.42 2.42 0 0 0 2.21-1.1h.055v.917h1.657V25.06c0-2.006-1.528-3.17-3.489-3.17zm-1.555 5.305c0 .688.782.97 1.344.97l.046.03a2.075 2.075 0 0 0 2.015-1.834 3.07 3.07 0 0 0-1.565-.384c-.865 0-1.84.301-1.84 1.218m11.129-5.03-1.97 4.965h-.055l-2.044-4.964h-1.841l3.065 6.944-1.749 3.857h1.795l4.714-10.801zm-13.753 7.33h-1.721V18.015h1.721z" clip-rule="evenodd"/><path fill="#5BC9F4" d="M10.149 8.85a1.75 1.75 0 0 0-.367 1.242V28.95c-.026.436.111.865.383 1.2l.058.06 10.303-10.56V19.4L10.206 8.79z"/><path fill="url('#paint0_linear_91_1721')" d="m24.096 23.395-3.57-3.296v-.232l3.57-3.288.078.04 4.242 2.219c1.21.63 1.21 1.667 0 2.306l-4.225 2.218z"/><path fill="url('#paint1_linear_91_1721')" d="M23.45 23.015 19.988 19.5 9.774 29.873c.483.43 1.2.451 1.707.05l11.978-6.907"/><path fill="url('#paint2_linear_91_1721')" d="M23.459 15.985 11.48 9.078a1.32 1.32 0 0 0-1.707.05L19.997 19.5z"/><path fill="#fff" fill-rule="evenodd" d="M39.712 13.184h-.614v2.176h.798V13.86h4.563v1.499h.799v-2.176h-.693V7.816h-4.037l.001 1.202c0 .805-.078 1.609-.233 2.4q-.11.546-.26 1.004-.148.457-.324.762m4.019-4.69v4.69h-3.106a4.4 4.4 0 0 0 .268-.703q.126-.422.228-.928c.143-.72.215-1.453.214-2.188v-.872zm4.398 5.46q-.544 0-.952-.173a1.95 1.95 0 0 1-1.11-1.207 2.8 2.8 0 0 1-.14-.897q0-.482.14-.903.14-.417.421-.728.282-.309.689-.486.41-.178.952-.178.535 0 .948.178.412.177.693.486.281.31.421.728.14.42.14.903 0 .481-.14.897a1.937 1.937 0 0 1-1.114 1.207c-.3.12-.623.18-.948.173m.55-.737q-.26.11-.55.11c-.38.001-.744-.154-1-.427q-.193-.208-.303-.516a2.1 2.1 0 0 1-.11-.707q0-.398.11-.707.11-.31.303-.521c.124-.138.278-.248.451-.322.173-.073.36-.11.55-.11.188 0 .375.037.548.11s.327.184.452.322c.135.152.238.33.303.52q.11.31.109.708 0 .397-.11.707a1.5 1.5 0 0 1-.302.515 1.3 1.3 0 0 1-.452.319m4.603.737q-.517 0-.916-.16a1.8 1.8 0 0 1-.667-.458 2 2 0 0 1-.405-.703 2.8 2.8 0 0 1-.135-.906q0-.49.131-.918t.4-.746q.267-.316.666-.498.4-.184.944-.183.385 0 .723.09.338.088.597.274.26.185.426.47.166.284.21.673h-.772a1.1 1.1 0 0 0-.368-.643q-.28-.23-.755-.229-.403 0-.675.144a1.2 1.2 0 0 0-.435.381q-.162.237-.232.546-.072.315-.07.64 0 .304.074.592.075.287.232.512t.41.36q.249.136.608.136.553 0 .865-.28t.382-.787h.763q-.123.82-.623 1.258-.5.435-1.378.435m2.503-3.835h1.624v3.742h.745v-3.742h1.624v-.635h-3.993zm5.25 5.486a2 2 0 0 1-.264-.017 1.3 1.3 0 0 1-.254-.06v-.66l.214.068a.8.8 0 0 0 .225.034c.13.006.26-.03.368-.102a.9.9 0 0 0 .246-.296l.307-.736-1.799-4.352h.842l1.325 3.581h.018l1.273-3.581h.79l-1.975 4.953a4 4 0 0 1-.26.542 1.5 1.5 0 0 1-.28.359 1 1 0 0 1-.342.203q-.212.067-.434.064m7.82-6.121h-3.703v4.377h.746v-3.742h2.211v3.742h.746zm1.318 0h.746v1.744h2.3V9.484h.745v4.377h-.746v-2.015H70.92v2.015h-.746zm6.114 4.297q.41.174.952.173c.325.006.648-.053.948-.173a1.94 1.94 0 0 0 1.115-1.207q.14-.415.14-.897t-.14-.903a2 2 0 0 0-.422-.728 2 2 0 0 0-.693-.486 2.4 2.4 0 0 0-.948-.178q-.544 0-.951.178-.409.177-.69.486a2 2 0 0 0-.42.728q-.141.42-.141.903a2.8 2.8 0 0 0 .14.897 1.947 1.947 0 0 0 1.11 1.207m.952-.453q.29 0 .55-.11a1.3 1.3 0 0 0 .45-.319q.194-.207.303-.515a2.1 2.1 0 0 0 .11-.707q0-.398-.11-.708a1.5 1.5 0 0 0-.302-.52 1.3 1.3 0 0 0-.452-.322 1.4 1.4 0 0 0-.549-.11c-.189 0-.376.037-.549.11a1.3 1.3 0 0 0-.451.322q-.194.211-.302.521a2.1 2.1 0 0 0-.11.707q0 .397.109.707.11.308.303.516t.451.317q.26.11.55.11m8.007-3.844H83.15v4.377h2.466c.189.002.376-.031.553-.097q.255-.098.438-.267c.124-.114.222-.253.286-.407q.1-.237.1-.516 0-.44-.232-.72a1.05 1.05 0 0 0-.628-.355v-.009q.316-.144.492-.364.175-.22.175-.576 0-.33-.131-.541a.9.9 0 0 0-.351-.326 1.6 1.6 0 0 0-.496-.157 4 4 0 0 0-.575-.042m.228 3.767q.368 0 .558-.207a.74.74 0 0 0 .188-.52.6.6 0 0 0-.202-.475q-.202-.178-.675-.178h-1.457v1.38zm.364-2.142q-.188.17-.67.17h-1.282v-1.186h1.281q.492 0 .676.148c.126.105.194.26.184.42a.57.57 0 0 1-.189.448" clip-rule="evenodd"/><defs><linearGradient id="paint0_linear_91_1721" x1="27.63" x2="6.735" y1="11.892" y2="11.892" gradientUnits="userSpaceOnUse"><stop stop-color="#FEE000"/><stop offset=".42" stop-color="#FBBC0E"/><stop offset=".78" stop-color="#FAA418"/><stop offset="1" stop-color="#F99B1C"/></linearGradient><linearGradient id="paint1_linear_91_1721" x1="7.373" x2=".317" y1="17.189" y2="37.433" gradientUnits="userSpaceOnUse"><stop stop-color="#EF4547"/><stop offset="1" stop-color="#C6186D"/></linearGradient><linearGradient id="paint2_linear_91_1721" x1="-1.231" x2="4.536" y1="2.011" y2="18.536" gradientUnits="userSpaceOnUse"><stop stop-color="#279E6F"/><stop offset=".04" stop-color="#2BA06F"/><stop offset=".46" stop-color="#53B26C"/><stop offset=".8" stop-color="#6BBD6A"/><stop offset="1" stop-color="#74C169"/></linearGradient></defs></svg>