<svg xmlns="http://www.w3.org/2000/svg" width="46" height="46" fill="none"><path fill="#CCC" d="M.017 23.804v-1.608C.44 9.866 10.57 0 23.003 0c12.702 0 23 10.298 23 23s-10.298 23-23 23C10.57 46 .44 36.134.017 23.804"/><path fill="#212122" fill-rule="evenodd" d="M12.858 19.984V12.16h-3.7v20.272h3.695l.005-7.144q-.007-1.798.335-2.718.33-.917 1.061-1.377a3 3 0 0 1 1.642-.458q.802 0 1.335.36.533.35.744.958.209.603.207 2.845v7.534h3.702v-8.366q0-1.92-.19-2.83a4.5 4.5 0 0 0-.712-1.668q-.518-.75-1.548-1.233c-.684-.324-1.448-.486-2.302-.486-1.656 0-3.084.715-4.274 2.135m14.569 0V12.16H23.73v20.272h3.697v-7.144q.001-1.798.335-2.718.337-.917 1.06-1.377a3 3 0 0 1 1.642-.458q.805 0 1.336.36.534.35.744.958.21.603.21 2.845v7.534h3.698v-8.366q0-1.92-.19-2.83a4.5 4.5 0 0 0-.712-1.668q-.518-.75-1.543-1.233-1.032-.486-2.306-.486c-1.656 0-3.082.715-4.274 2.135" clip-rule="evenodd"/></svg>