<svg xmlns="http://www.w3.org/2000/svg" width="36" height="36" fill="none"><path stroke="#CCC" d="M35.5 18c0 9.665-7.835 17.5-17.5 17.5S.5 27.665.5 18 8.335.5 18 .5 35.5 8.335 35.5 18Z"/><path fill="#CCC" fill-rule="evenodd" d="M18 13.893q1.107 0 2.054.553a4.1 4.1 0 0 1 1.5 1.5q.553.947.553 2.054 0 1.108-.553 2.053a4.1 4.1 0 0 1-1.5 1.5 4 4 0 0 1-2.054.554 4 4 0 0 1-2.054-.553 4.1 4.1 0 0 1-1.5-1.5A4 4 0 0 1 13.893 18q0-1.107.553-2.054a4.1 4.1 0 0 1 1.5-1.5A4 4 0 0 1 18 13.893m0 6.907q1.156 0 1.978-.822A2.7 2.7 0 0 0 20.8 18q0-1.156-.822-1.978A2.7 2.7 0 0 0 18 15.2q-1.156 0-1.978.822A2.7 2.7 0 0 0 15.2 18q0 1.156.822 1.978A2.7 2.7 0 0 0 18 20.8m5.25-7.086a1.1 1.1 0 0 1-.304.679.87.87 0 0 1-.66.286.93.93 0 0 1-.679-.286.93.93 0 0 1-.286-.679q0-.393.286-.678a.93.93 0 0 1 .679-.286q.393 0 .678.286.285.285.286.678m2.714.965Q26 15.678 26 18t-.054 3.34-.303 1.767a4.2 4.2 0 0 1-.982 1.554q-.66.66-1.554.982-.75.25-1.768.303Q20.322 26 18 26t-3.34-.054q-1.017-.052-1.767-.339a3.8 3.8 0 0 1-1.554-.946 4.2 4.2 0 0 1-.982-1.554q-.25-.75-.303-1.768Q10 20.322 10 18t.054-3.34q.052-1.017.303-1.767a4.2 4.2 0 0 1 .982-1.554q.66-.66 1.554-.982.75-.25 1.768-.303Q15.678 10 18 10t3.34.054q1.017.052 1.767.303a4.2 4.2 0 0 1 1.554.982q.66.66.982 1.554.25.75.321 1.786m-1.518 8.183q.222-.626.295-1.989.037-.81.037-2.284v-1.178q0-1.511-.037-2.284-.074-1.4-.295-1.99a2.66 2.66 0 0 0-1.584-1.583q-.59-.222-1.989-.295a54 54 0 0 0-2.284-.037h-1.178q-1.474 0-2.284.037-1.363.074-1.99.295a2.66 2.66 0 0 0-1.583 1.584q-.222.59-.295 1.989-.037.81-.037 2.284v1.178q0 1.474.037 2.284.074 1.363.295 1.99.479 1.14 1.584 1.583.626.221 1.989.295.81.037 2.284.037h1.178q1.511 0 2.284-.037 1.4-.075 1.99-.295 1.141-.479 1.583-1.584" clip-rule="evenodd"/></svg>