<svg xmlns="http://www.w3.org/2000/svg" width="36" height="36" fill="none"><path stroke="#CCC" d="M35.5 18c0 9.665-7.835 17.5-17.5 17.5S.5 27.665.5 18 8.335.5 18 .5 35.5 8.335 35.5 18Z"/><path stroke="#CCC" d="M17.313 15.281q-.001.103.004.205a8.6 8.6 0 0 1-2.98-.9 8.55 8.55 0 0 1-2.82-2.304l-.45-.564-.37.618a3.64 3.64 0 0 0-.54 1.898q-.001.905.396 1.687l-.397-.235v.939c0 .89.292 1.69.865 2.381q.155.188.325.351l-.244-.024.235.727c.24.744.68 1.364 1.31 1.851q.419.323.893.506a6 6 0 0 1-2.759.645q-.42 0-.736-.029l-.316.919c1.603 1.031 3.374 1.548 5.302 1.548 2.006 0 3.8-.514 5.368-1.55 1.428-.924 2.538-2.168 3.327-3.721.764-1.463 1.149-2.99 1.149-4.573l-.003-.182a7.7 7.7 0 0 0 1.54-1.66l.986-1.433-1.597.691q-.032.016-.065.028.182-.326.302-.696l.403-1.242-1.13.656a6.1 6.1 0 0 1-1.692.67 4.2 4.2 0 0 0-1.019-.66 3.6 3.6 0 0 0-1.538-.328c-.67 0-1.3.169-1.876.506a3.7 3.7 0 0 0-1.37 1.387 3.75 3.75 0 0 0-.503 1.888Z"/></svg>