<svg xmlns="http://www.w3.org/2000/svg" width="36" height="36" fill="none"><path stroke="#CCC" d="M35.5 18c0 9.665-7.835 17.5-17.5 17.5S.5 27.665.5 18 8.335.5 18 .5 35.5 8.335 35.5 18Z"/><path stroke="#CCC" d="m24.874 18.148.006-.008.004-.008q.744-1.242 1.278-2.186c.485-.86.808-1.545.9-2.012.082-.327.098-.718-.145-1.033-.247-.32-.638-.401-.978-.401h-2.084c-.299 0-.585.076-.831.254a1.5 1.5 0 0 0-.511.685l-.346.736-.003.006-.003.007q-.415.954-.86 1.753-.653 1.13-1.287 1.872c-.208.244-.347.373-.424.428l-.002-.066v-4.35c0-.317-.038-.658-.206-.913-.21-.318-.555-.412-.859-.412h-3.284c-.273 0-.519.102-.714.286a.97.97 0 0 0-.316.72c0 .314.175.603.352.832.148.19.237.343.285.462l.005.013.006.012c.108.229.178.51.2.853v3.247q0 .129-.007.223a3.6 3.6 0 0 1-.474-.528c-.397-.515-.803-1.195-1.218-2.05l-.002-.005q-.689-1.389-1.17-2.85c-.1-.344-.242-.67-.466-.887-.257-.248-.599-.328-.93-.328H8.706c-.3 0-.62.067-.864.288-.256.23-.342.546-.342.85 0 .322.1.818.264 1.44l.004.015.005.015q.4 1.195 1.045 2.566a23.4 23.4 0 0 0 2.051 3.555c.88 1.349 1.918 2.403 3.118 3.146 1.193.74 2.401 1.125 3.618 1.125q.502.001.882-.064c.242-.043.485-.116.678-.253l.007-.005.006-.005c.35-.265.436-.673.41-1.054v-.956c0-.61.013-.961.03-1.096l.005-.034V22q0-.06.004-.1h.026c.067 0 .247.046.574.269.31.212.692.542 1.15 1.003q.408.435.947 1.08.278.334.483.552c.124.131.245.25.355.33a1.58 1.58 0 0 0 1.011.366h2.083c.377 0 .754-.111 1.01-.432.264-.332.272-.745.183-1.12l-.003-.015-.005-.015c-.133-.44-.472-.994-.952-1.636q-.735-.983-2.012-2.375l-.307-.363a.7.7 0 0 1-.092-.138l.011-.031a1.4 1.4 0 0 1 .106-.2l.015-.021.043-.062.134-.2q.17-.256.487-.744Z"/></svg>